<?xml version="1.0" encoding="UTF-8" standalone="no"?>
<svg
   xmlns:dc="http://purl.org/dc/elements/1.1/"
   xmlns:cc="http://creativecommons.org/ns#"
   xmlns:rdf="http://www.w3.org/1999/02/22-rdf-syntax-ns#"
   xmlns:svg="http://www.w3.org/2000/svg"
   xmlns="http://www.w3.org/2000/svg"
   xmlns:xlink="http://www.w3.org/1999/xlink"
   xmlns:sodipodi="http://sodipodi.sourceforge.net/DTD/sodipodi-0.dtd"
   xmlns:inkscape="http://www.inkscape.org/namespaces/inkscape"
   height="1.1516408in"
   version="1.2"
   viewBox="0 0 78.434025 82.919503"
   width="1.0893614in"
   x="0px"
   y="0px"
   id="svg2"
   inkscape:version="0.91 r13725"
   sodipodi:docname="dc_motor_leg.svg">
  <metadata
     id="metadata80">
    <rdf:RDF>
      <cc:Work
         rdf:about="">
        <dc:format>image/svg+xml</dc:format>
        <dc:type
           rdf:resource="http://purl.org/dc/dcmitype/StillImage" />
        <dc:title></dc:title>
      </cc:Work>
    </rdf:RDF>
  </metadata>
  <defs
     id="defs78">
    <linearGradient
       inkscape:collect="always"
       id="linearGradient5796">
      <stop
         style="stop-color:#116eae;stop-opacity:1;"
         offset="0"
         id="stop5798" />
      <stop
         style="stop-color:#116eae;stop-opacity:0;"
         offset="1"
         id="stop5800" />
    </linearGradient>
    <linearGradient
       inkscape:collect="always"
       xlink:href="#linearGradient5796"
       id="linearGradient5809"
       gradientUnits="userSpaceOnUse"
       gradientTransform="translate(-168.0494,-66.560106)"
       x1="90.293259"
       y1="5.5360012"
       x2="102.40353"
       y2="5.6328835" />
    <linearGradient
       inkscape:collect="always"
       xlink:href="#linearGradient5796"
       id="linearGradient5819"
       x1="90.293259"
       y1="8.0549393"
       x2="100.46589"
       y2="8.1518211"
       gradientUnits="userSpaceOnUse"
       gradientTransform="translate(-19.221989,13.840448)" />
  </defs>
  <sodipodi:namedview
     pagecolor="#ffffff"
     bordercolor="#666666"
     borderopacity="1"
     objecttolerance="10"
     gridtolerance="10"
     guidetolerance="10"
     inkscape:pageopacity="0"
     inkscape:pageshadow="2"
     inkscape:window-width="1155"
     inkscape:window-height="686"
     id="namedview76"
     showgrid="false"
     fit-margin-top="0"
     fit-margin-left="0"
     fit-margin-right="0"
     fit-margin-bottom="0"
     inkscape:zoom="2.0643959"
     inkscape:cx="-14.245687"
     inkscape:cy="65.535959"
     inkscape:window-x="0"
     inkscape:window-y="0"
     inkscape:window-maximized="0"
     inkscape:current-layer="svg2" />
  <rect
     style="fill:#8c8c8c"
     y="26.391449"
     x="0.072512798"
     width="0.73501897"
     id="connector0pin"
     height="1" />
  <rect
     style="fill:#8c8c8c"
     y="57.09745"
     x="-0.00098878588"
     width="0.73501897"
     id="connector1pin"
     height="1" />
  <g
     id="g7"
     transform="matrix(0.73501899,0,0,1,-14.128789,13.840448)">
    <rect
       style="fill:#878787"
       id="rect9"
       y="25.221001"
       x="107.157"
       width="12.975"
       height="4.5619998" />
    <rect
       style="fill:#2d2d2d"
       id="rect11"
       y="25.221001"
       x="107.157"
       width="0.45100001"
       height="4.5619998" />
    <rect
       style="opacity:0.35"
       id="rect13"
       y="29.257999"
       x="107.157"
       width="12.975"
       height="0.52200001" />
    <path
       style="opacity:0.35;fill:#ffffff"
       inkscape:connector-curvature="0"
       id="path15"
       d="m 119.835,26.478 c 0,0.255 -0.275,0.461 -0.617,0.461 l -12.438,0 c -0.34,0 -0.617,-0.188 -0.617,-0.443 l 0,-0.369 c 0,-0.256 0.277,-0.479 0.617,-0.479 l 12.438,0 c 0.342,0 0.617,0.207 0.617,0.461 l 0,0.369 z" />
  </g>
  <g
     id="g17"
     transform="matrix(0.73501899,0,0,1,-14.128789,13.840448)">
    <path
       style="fill:#6d6d6d;stroke:#6d6d6d;stroke-width:1"
       inkscape:connector-curvature="0"
       id="path19"
       d="m 106.687,7.465 c 0,-1.561 -1.275,-2.834 -2.834,-2.834 l -0.031,0 c -1.561,0 -2.836,-0.93 -2.836,-2.062 0,-1.132 -1.273,-2.061 -2.834,-2.061 l -69.645,0 0,54.701 69.645,0 c 1.561,0 2.834,-0.93 2.834,-2.062 0,-1.132 1.275,-2.061 2.836,-2.061 l 0.031,0 c 1.559,0 2.834,-1.275 2.834,-2.836 l 0,-40.785 0,0 z" />
  </g>
  <path
     style="opacity:0.35"
     inkscape:connector-curvature="0"
     id="path21"
     d="m 62.518991,61.655448 -0.02131,0 c -1.140015,0 -2.280029,0.606 -2.280029,1.346 0,0.738 -0.721789,1.346 -1.860333,1.346 l -47.333753,0 0,4.453 46.918467,0 c 1.137074,0 2.066873,-0.926 2.066873,-2.055 0,-1.129 0.933474,-2.055 2.069814,-2.055 l 0.02278,0 c 1.138545,0 2.068344,-1.271 2.068344,-2.824 l 0,-2.061 c 0.0029,1.018 -0.512308,1.85 -1.650853,1.85 z" />
  <path
     style="opacity:0.5;fill:#686868"
     inkscape:connector-curvature="0"
     id="path33"
     d="m 60.640283,41.905448 c 0,13.27 -0.557145,24.021 -0.557145,24.021 l 0,-48.039 c 0,0 0.557145,10.756 0.557145,24.018 z" />
  <path
     style="opacity:0.16000001;fill:#ffffff"
     inkscape:connector-curvature="0"
     id="path35"
     d="m 59.240071,31.679448 c 0,1.417 -1.047402,2.564 -2.338095,2.564 l -40.807519,0 c -1.291428,0 -2.338095,-1.049 -2.338095,-2.467 l 0,-12.792 c 0,-1.418 1.046667,-2.668 2.338095,-2.668 l 40.807519,0 c 1.290693,0 2.338095,1.15 2.338095,2.568 l 0,12.795 z" />
  <g
     style="opacity:0.16000001"
     id="g37"
     transform="matrix(0.73501899,0,0,1,-14.128789,13.840448)">
    <path
       style="fill:#ffffff"
       inkscape:connector-curvature="0"
       id="path39"
       d="m 105.595,18.178 c 0,0.78 -0.639,1.417 -1.417,1.417 l -0.352,0 c -0.777,0 -1.417,-0.638 -1.417,-1.417 l 0,-10.493 c 0,-0.78 0.64,-1.417 1.417,-1.417 l 0.352,0 c 0.778,0 1.417,0.638 1.417,1.417 l 0,10.493 z" />
  </g>
  <g
     id="g41"
     transform="matrix(0.73501899,0,0,1,-14.128789,13.840448)">
    <path
       inkscape:connector-curvature="0"
       id="path43"
       d="m 92.049,24.66 c -1.034,0 -1.876,-0.841 -1.876,-1.875 l 0,-8.422 c 0,-1.035 0.842,-1.877 1.876,-1.877 1.034,0 1.876,0.842 1.876,1.877 l 0,8.422 c 0,1.033 -0.842,1.875 -1.876,1.875 l 0,0 z" />
    <path
       style="fill:#6b6b6b"
       inkscape:connector-curvature="0"
       id="path45"
       d="m 92.049,12.986 c 0.759,0 1.376,0.618 1.376,1.377 l 0,8.422 c 0,0.76 -0.617,1.375 -1.376,1.375 -0.759,0 -1.376,-0.615 -1.376,-1.375 l 0,-8.422 c 0,-0.76 0.617,-1.377 1.376,-1.377 m 0,-1 c -1.312,0 -2.376,1.064 -2.376,2.377 l 0,8.422 c 0,1.312 1.062,2.375 2.376,2.375 1.312,0 2.376,-1.062 2.376,-2.375 l 0,-8.422 c 0,-1.313 -1.064,-2.377 -2.376,-2.377 l 0,0 z" />
  </g>
  <g
     id="g47"
     transform="matrix(0.73501899,0,0,1,-14.128789,13.840448)">
    <path
       inkscape:connector-curvature="0"
       id="path49"
       d="m 92.049,43.234 c -1.034,0 -1.876,-0.842 -1.876,-1.876 l 0,-8.421 c 0,-1.035 0.842,-1.877 1.876,-1.877 1.034,0 1.876,0.842 1.876,1.877 l 0,8.421 c 0,1.034 -0.842,1.876 -1.876,1.876 l 0,0 z" />
    <path
       style="fill:#6b6b6b"
       inkscape:connector-curvature="0"
       id="path51"
       d="m 92.049,31.56 c 0.759,0 1.376,0.618 1.376,1.377 l 0,8.421 c 0,0.759 -0.617,1.376 -1.376,1.376 -0.759,0 -1.376,-0.617 -1.376,-1.376 l 0,-8.421 c 0,-0.759 0.617,-1.377 1.376,-1.377 m 0,-1 c -1.312,0 -2.376,1.064 -2.376,2.377 l 0,8.421 c 0,1.312 1.062,2.376 2.376,2.376 1.312,0 2.376,-1.062 2.376,-2.376 l 0,-8.421 c 0,-1.312 -1.064,-2.377 -2.376,-2.377 l 0,0 z" />
  </g>
  <g
     id="g53"
     transform="matrix(0.73501899,0,0,1,-14.128789,13.840448)">
    <path
       inkscape:connector-curvature="0"
       id="path55"
       d="m 92.049,6.086 c -1.034,0 -1.876,-0.843 -1.876,-1.875 l 0,-3.711 3.752,0 0,3.711 c 0,1.034 -0.842,1.875 -1.876,1.875 l 0,0 z" />
    <path
       style="fill:#6b6b6b"
       inkscape:connector-curvature="0"
       id="path57"
       d="m 93.425,1 0,3.211 c 0,0.758 -0.617,1.375 -1.376,1.375 -0.759,0 -1.376,-0.617 -1.376,-1.375 l 0,-3.211 2.752,0 m 1,-1 -4.752,0 0,4.211 c 0,1.312 1.062,2.375 2.376,2.375 1.312,0 2.376,-1.063 2.376,-2.375 l 0,-4.211 0,0 z" />
  </g>
  <g
     id="g59"
     transform="matrix(0.73501899,0,0,1,-14.128789,13.840448)">
    <path
       inkscape:connector-curvature="0"
       id="path61"
       d="m 90.173,55.221 0,-3.711 c 0,-1.035 0.842,-1.877 1.876,-1.877 1.034,0 1.876,0.842 1.876,1.877 l 0,3.711 -3.752,0 z" />
    <path
       style="fill:#6b6b6b"
       inkscape:connector-curvature="0"
       id="path63"
       d="m 92.049,50.133 c 0.759,0 1.376,0.618 1.376,1.377 l 0,3.211 -2.752,0 0,-3.211 c 0,-0.759 0.617,-1.377 1.376,-1.377 m 0,-1 c -1.312,0 -2.376,1.062 -2.376,2.377 l 0,4.211 4.752,0 0,-4.211 c 0,-1.312 -1.064,-2.377 -2.376,-2.377 l 0,0 z" />
  </g>
  <path
     d="m 0.48632854,24.278448 -0.36751,0.548 0,3 0.410876,0.548 5.65891096,0 0,-4.097 -5.70227696,0.001 0,0 z m 1.14589396,3.398 c -0.548324,0 -0.99227496,-0.604 -0.99227496,-1.35 0,-0.746 0.44395096,-1.35 0.99227496,-1.35 0.548325,0 0.992276,0.604 0.992276,1.35 0,0.746 -0.443951,1.35 -0.992276,1.35 z"
     id="path66"
     inkscape:connector-curvature="0"
     style="fill:#ed8f66" />
  <path
     d="m 0.48632854,55.048448 -0.36751,0.549 0,3 0.410876,0.548 5.65891096,0 0,-4.097 -5.70227696,0 z m 1.14589396,3.399 c -0.548324,0 -0.99227496,-0.604 -0.99227496,-1.35 0,-0.746 0.44395096,-1.35 0.99227496,-1.35 0.548325,0 0.992276,0.604 0.992276,1.35 0,0.746 -0.443951,1.35 -0.992276,1.35 z"
     id="path68"
     inkscape:connector-curvature="0"
     style="fill:#ed8f66" />
  <rect
     style="color:#000000;clip-rule:nonzero;display:inline;overflow:visible;visibility:visible;opacity:1;isolation:auto;mix-blend-mode:normal;color-interpolation:sRGB;color-interpolation-filters:linearRGB;solid-color:#000000;solid-opacity:1;fill:url(#linearGradient5819);fill-opacity:1;fill-rule:nonzero;stroke:none;stroke-width:0.28346926;stroke-linecap:butt;stroke-linejoin:miter;stroke-miterlimit:4;stroke-dasharray:none;stroke-dashoffset:0;stroke-opacity:1;color-rendering:auto;image-rendering:auto;shape-rendering:auto;text-rendering:auto;enable-background:accumulate"
     id="rect4254"
     width="6.5879927"
     height="43.790775"
     x="71.071266"
     y="0"
     ry="7.0724044"
     rx="3.2939963" />
  <rect
     rx="3.2939963"
     ry="7.0724044"
     y="-82.919502"
     x="-77.756142"
     height="43.790775"
     width="6.5879927"
     id="rect5807"
     style="color:#000000;clip-rule:nonzero;display:inline;overflow:visible;visibility:visible;opacity:1;isolation:auto;mix-blend-mode:normal;color-interpolation:sRGB;color-interpolation-filters:linearRGB;solid-color:#000000;solid-opacity:1;fill:url(#linearGradient5809);fill-opacity:1;fill-rule:nonzero;stroke:none;stroke-width:0.28346926;stroke-linecap:butt;stroke-linejoin:miter;stroke-miterlimit:4;stroke-dasharray:none;stroke-dashoffset:0;stroke-opacity:1;color-rendering:auto;image-rendering:auto;shape-rendering:auto;text-rendering:auto;enable-background:accumulate"
     transform="scale(-1,-1)" />
  <rect
     style="color:#000000;clip-rule:nonzero;display:inline;overflow:visible;visibility:visible;opacity:1;isolation:auto;mix-blend-mode:normal;color-interpolation:sRGB;color-interpolation-filters:linearRGB;solid-color:#000000;solid-opacity:1;fill:#116eae;fill-opacity:1;fill-rule:nonzero;stroke:none;stroke-width:0.35433072;stroke-linecap:butt;stroke-linejoin:miter;stroke-miterlimit:4;stroke-dasharray:none;stroke-dashoffset:0;stroke-opacity:1;color-rendering:auto;image-rendering:auto;shape-rendering:auto;text-rendering:auto;enable-background:accumulate"
     id="rect5811"
     width="7.7505794"
     height="7.5568147"
     x="70.683746"
     y="37.396545"
     rx="3.2940543"
     ry="7.072525" />
</svg>
